<svg xmlns="http://www.w3.org/2000/svg" xmlns:xlink="http://www.w3.org/1999/xlink" aria-hidden="true" role="img" class="iconify iconify--logos" width="35.93" height="32" preserveAspectRatio="xMidYMid meet" viewBox="0 0 256 228"><path fill="#00D8FF" d="M210.483 73.824a171.49 171.49 0 0 0-8.24-2.597c.465-1.9.893-3.777 1.273-5.621c6.238-30.281 2.16-54.676-11.769-62.708c-13.355-7.7-35.196.329-57.254 19.526a171.23 171.23 0 0 0-6.375 5.848a155.866 155.866 0 0 0-4.241-3.917C100.759 3.829 77.587-4.822 63.673 3.233C50.33 10.957 46.379 33.89 51.995 62.588a170.974 170.974 0 0 0 1.892 8.48c-3.28.932-6.445 1.924-9.474 2.98C17.309 83.498 0 98.307 0 113.668c0 15.865 18.582 31.778 46.812 41.427a145.52 145.52 0 0 0 6.921 2.165a167.467 167.467 0 0 0-2.01 9.138c-5.354 28.2-1.173 50.591 12.134 58.266c13.744 7.926 36.812-.22 59.273-19.855a145.567 145.567 0 0 0 5.342-4.923a168.064 168.064 0 0 0 6.92 6.314c21.758 18.722 43.246 26.282 56.54 18.586c13.731-7.949 18.194-32.003 12.4-61.268a145.016 145.016 0 0 0-1.535-6.842c1.62-.48 3.21-.974 4.76-1.488c29.348-9.723 48.443-25.443 48.443-41.52c0-15.417-17.868-30.326-45.517-39.844Zm-6.365 70.984c-1.596.54-3.233 1.518-4.923 1.98a156.048 156.048 0 0 0-8.86-22.83a175.996 175.996 0 0 0 8.83-22.556c1.32.343 2.602.696 3.846 1.06c23.705 7.458 38.666 19.695 38.666 30.761c0 11.535-15.983 24.004-37.559 31.585ZM200.33 129.8c-1.82 8.91-4.374 17.594-7.627 26.01c-1.9-3.63-3.894-7.26-5.977-10.836c2.018-5.062 3.836-10.24 5.44-15.467a154.067 154.067 0 0 1 8.164.293Zm-47.1-82.118c12.794-11.06 25.803-18.188 36.12-18.188c3.18 0 6.08.659 8.591 2.095c8.547 4.934 11.805 22.618 7.105 48.24c-.36 1.902-.783 3.832-1.26 5.78a155.944 155.944 0 0 0-23.502-4.88c-5.048-8.52-10.543-16.694-16.432-24.47a145.14 145.14 0 0 0-10.622-8.577Zm-30.61 133.77a155.14 155.14 0 0 0 12.043 9.967c-5.188 4.617-10.574 8.747-16.077 12.332c-12.396 8.045-23.89 11.607-30.95 7.555c-7.565-4.363-11.049-19.753-7.19-41.456c.57-3.116 1.268-6.265 2.077-9.43a148.08 148.08 0 0 0 7.686 1.563c5.29 10.2 11.126 20.017 17.48 29.33a154.965 154.965 0 0 0 14.931-9.861Zm-45.9 7.53c-6.75-3.892-9.478-16.65-6.517-36.22c.447-3.006 1.037-6.06 1.76-9.137c7.44 1.38 15.07 2.27 22.82 2.66c5.04 8.6 10.57 16.87 16.53 24.72c-7.83 6.72-15.57 11.73-22.47 14.69c-4.63 2-8.73 3.29-12.12 3.29Zm78.73-59.15c-3.65-8.79-7.85-17.42-12.55-25.83c3.23.18 6.46.44 9.7.77c-.91 8.24-1.99 16.47-3.15 25.06Zm1.14-36.02c-3.34-.3-6.7-.52-10.08-.64c-2.58-4.22-5.22-8.39-7.9-12.48a155.2 155.2 0 0 1 30.98 7.15c-4.29 1.74-8.68 3.61-13 5.97Zm-57.17-2.37a155.02 155.02 0 0 1 7.847-12.217a153.08 153.08 0 0 0-10.113.666a154.56 154.56 0 0 0 2.266 11.551Zm-23.35-49.4c9.364-8.17 19.55-13.72 28.64-13.72c3.07 0 5.88.62 8.36 1.93c7.63 4.4 10.43 20.01 6.7 44.13a153.09 153.09 0 0 0-5.888-1.08c-4.91-8.43-10.32-16.61-16.15-24.44a146.87 146.87 0 0 0-21.662-6.82Zm-9.15 65.68c-23.393-7.66-38.4-19.93-38.4-30.95c0-11.57 16.08-24.13 39.85-31.72c1.25-.41 2.52-.79 3.8-1.16a154.29 154.29 0 0 0 8.62 22.44a154.86 154.86 0 0 0-8.74 22.72c-1.74-.45-3.47-.93-5.13-1.33Zm27.55 8.2c1.7 8.82 3.93 17.5 6.67 26.01a153.62 153.62 0 0 1-8.047-.507c.474-8.517 1.019-17.045 1.377-25.503Zm19.37 45.08c-5.97-8.95-11.35-18.18-16.06-27.57c2.96.15 5.93.22 8.92.22c3.19 0 6.37-.07 9.54-.2c-4.64 9.36-9.14 18.58-2.4 27.55Zm17.64-62.72c3.76 8.47 7.08 17.1 9.94 25.83c-3.22-.21-6.46-.38-9.71-.5c.49-8.46.97-16.9 1.45-25.33h-1.68Zm26.27-4.2c7.48 12.46 13.87 25.52 19.08 39.03a154.2 154.2 0 0 1-7.427 2.55c-1.7-8.9-3.91-17.64-6.61-26.2a153.4 153.4 0 0 0-5.04-15.38Zm-11.39-75.14c13.01 9.6 25.19 20.96 36.12 33.76a153.22 153.22 0 0 0-18.56-3.01a153.7 153.7 0 0 0-17.56-30.75Zm-74.7 126.43a152.38 152.38 0 0 0 18.47 3.07a153.37 153.37 0 0 0 17.47 30.5c-12.98-9.55-25.11-20.85-35.94-33.57Zm56.4-123.74c5.98 9.35 11.41 19.05 16.22 29.03a153.39 153.39 0 0 0-32.44 0c4.82-9.98 10.24-19.68 16.22-29.03Z"/></svg>
